<?xml version="1.0" encoding="UTF-8"?>
<!DOCTYPE svg PUBLIC "-//W3C//DTD SVG 1.1//EN" "http://www.w3.org/Graphics/SVG/1.1/DTD/svg11.dtd">
<svg xmlns="http://www.w3.org/2000/svg" version="1.1" width="222px" height="222px" style="shape-rendering:geometricPrecision; text-rendering:geometricPrecision; image-rendering:optimizeQuality; fill-rule:evenodd; clip-rule:evenodd" xmlns:xlink="http://www.w3.org/1999/xlink">
<g><path style="opacity:1" fill="#f6f8fa" d="M -0.5,-0.5 C 73.5,-0.5 147.5,-0.5 221.5,-0.5C 221.5,73.5 221.5,147.5 221.5,221.5C 147.5,221.5 73.5,221.5 -0.5,221.5C -0.5,147.5 -0.5,73.5 -0.5,-0.5 Z"/></g>
<g><path style="opacity:1" fill="#069cfb" d="M 97.5,9.5 C 146.335,6.49251 181.502,26.8258 203,70.5C 218.579,117.742 207.412,157.242 169.5,189C 139.253,208.992 106.92,212.992 72.5,201C 33.0961,182.529 12.7627,151.529 11.5,108C 13.053,64.897 33.3863,34.2304 72.5,16C 80.6914,12.7035 89.0247,10.5368 97.5,9.5 Z"/></g>
<g><path style="opacity:1" fill="#b1e0fd" d="M 90.5,92.5 C 90.5,91.5 90.5,90.5 90.5,89.5C 89.1667,89.5 87.8333,89.5 86.5,89.5C 86.7947,91.7354 86.4614,93.7354 85.5,95.5C 86.4614,93.7354 86.7947,91.7354 86.5,89.5C 87.8333,89.5 89.1667,89.5 90.5,89.5C 90.5,90.5 90.5,91.5 90.5,92.5 Z"/></g>
<g><path style="opacity:1" fill="#f4fafe" d="M 112.5,111.5 C 109.167,111.5 105.833,111.5 102.5,111.5C 98.583,110.752 96.083,108.418 95,104.5C 93.213,94.719 97.213,89.3856 107,88.5C 118.156,89.1497 122.156,94.8164 119,105.5C 117.615,108.386 115.449,110.386 112.5,111.5 Z"/></g>
<g><path style="opacity:1" fill="#f3fafe" d="M 32.5,88.5 C 34.924,88.1924 37.2573,88.5258 39.5,89.5C 42.1667,96.5 44.8333,103.5 47.5,110.5C 45.9255,111.631 44.2588,111.798 42.5,111C 40.9086,104.093 36.7419,101.927 30,104.5C 28.5886,106.65 27.7553,108.984 27.5,111.5C 25.4727,111.662 23.4727,111.495 21.5,111C 25.5837,103.667 29.2503,96.1667 32.5,88.5 Z"/></g>
<g><path style="opacity:1" fill="#fcfefe" d="M 90.5,92.5 C 90.5,98.8333 90.5,105.167 90.5,111.5C 88.8333,111.5 87.1667,111.5 85.5,111.5C 85.5,106.167 85.5,100.833 85.5,95.5C 86.4614,93.7354 86.7947,91.7354 86.5,89.5C 87.8333,89.5 89.1667,89.5 90.5,89.5C 90.5,90.5 90.5,91.5 90.5,92.5 Z"/></g>
<g><path style="opacity:1" fill="#199ffb" d="M 105.5,91.5 C 114.518,92.5207 117.185,97.1873 113.5,105.5C 106.354,110.543 101.688,108.877 99.5,100.5C 99.9439,96.4017 101.944,93.4017 105.5,91.5 Z"/></g>
<g><path style="opacity:1" fill="#44acfb" d="M 35.5,92.5 C 37.2671,94.7916 38.2671,97.4582 38.5,100.5C 36.5,100.5 34.5,100.5 32.5,100.5C 32.9402,97.6202 33.9402,94.9535 35.5,92.5 Z"/></g>
<g><path style="opacity:1" fill="#9ed8fd" d="M 50.5,102.5 C 54.2571,102.286 54.9238,103.286 52.5,105.5C 55.6974,110.64 54.364,112.307 48.5,110.5C 49.7287,109.719 51.062,109.219 52.5,109C 49.6793,107.379 49.0126,105.212 50.5,102.5 Z"/></g>
<g><path style="opacity:1" fill="#f2f9fe" d="M 123.5,103.5 C 127.833,103.5 132.167,103.5 136.5,103.5C 136.666,110.175 136.5,116.842 136,123.5C 133.925,127.537 130.592,129.204 126,128.5C 124.167,128.333 122.333,128.167 120.5,128C 119.269,126.817 119.269,125.651 120.5,124.5C 123.103,125.562 125.77,125.728 128.5,125C 131.08,123.519 131.913,121.352 131,118.5C 121.121,122.635 117.121,119.302 119,108.5C 120.707,106.963 122.207,105.296 123.5,103.5 Z"/></g>
<g><path style="opacity:1" fill="#f4fafe" d="M 140.5,103.5 C 144.206,104.539 147.873,104.539 151.5,103.5C 151.5,104.5 151.5,105.5 151.5,106.5C 149.516,106.383 147.85,107.05 146.5,108.5C 144.744,112.288 144.078,116.288 144.5,120.5C 143.167,120.5 141.833,120.5 140.5,120.5C 140.5,114.833 140.5,109.167 140.5,103.5 Z"/></g>
<g><path style="opacity:1" fill="#f3fafe" d="M 162.5,119.5 C 160.283,120.369 157.95,120.702 155.5,120.5C 152.746,118.947 151.913,116.614 153,113.5C 156.926,111.563 160.759,109.563 164.5,107.5C 162.201,105.231 159.534,104.898 156.5,106.5C 155.614,105.675 155.281,104.675 155.5,103.5C 159.767,103.203 163.934,103.536 168,104.5C 168.499,109.823 168.666,115.156 168.5,120.5C 167.167,120.5 165.833,120.5 164.5,120.5C 164.665,117.482 164.498,114.482 164,111.5C 162.184,112.329 160.351,113.163 158.5,114C 157.167,115.333 157.167,116.667 158.5,118C 160.058,118.21 161.391,118.71 162.5,119.5 Z"/></g>
<g><path style="opacity:1" fill="#f8fcfe" d="M 188.5,120.5 C 187.167,120.5 185.833,120.5 184.5,120.5C 184.818,115.968 184.485,111.634 183.5,107.5C 181.243,106.197 179.41,106.864 178,109.5C 177.501,113.152 177.335,116.818 177.5,120.5C 176.167,120.5 174.833,120.5 173.5,120.5C 173.5,116.5 173.5,112.5 173.5,108.5C 173.5,106.833 173.5,105.167 173.5,103.5C 177.049,104.382 180.549,104.382 184,103.5C 186.034,103.354 187.701,104.02 189,105.5C 191.917,103.607 195.084,103.107 198.5,104C 199.473,109.407 199.807,114.907 199.5,120.5C 198.167,120.5 196.833,120.5 195.5,120.5C 195.666,116.154 195.499,111.821 195,107.5C 192.46,106.124 190.46,106.79 189,109.5C 188.501,113.152 188.335,116.818 188.5,120.5 Z"/></g>
<g><path style="opacity:1" fill="#26a2fb" d="M 126.5,106.5 C 128.167,106.5 129.833,106.5 131.5,106.5C 131.664,109.187 131.497,111.854 131,114.5C 128.679,117.917 126.012,118.25 123,115.5C 121.98,111.553 123.147,108.553 126.5,106.5 Z"/></g>
<g><path style="opacity:1" fill="#a0d9fd" d="M 56.5,102.5 C 58.2469,103.981 59.4136,105.981 60,108.5C 61.1145,107 61.9479,105.333 62.5,103.5C 66.2723,102.932 69.9389,102.766 73.5,103C 74.7825,105.795 74.7825,108.628 73.5,111.5C 72.5258,109.257 72.1924,106.924 72.5,104.5C 71.1779,104.33 70.0113,104.663 69,105.5C 68.5045,107.473 68.3379,109.473 68.5,111.5C 67.5,111.5 66.5,111.5 65.5,111.5C 65.6641,108.813 65.4974,106.146 65,103.5C 63.4545,107.298 61.6212,110.965 59.5,114.5C 58.1667,115.833 56.8333,115.833 55.5,114.5C 56.325,113.614 57.325,113.281 58.5,113.5C 58.2494,109.751 57.5828,106.085 56.5,102.5 Z"/></g>
<g><path style="opacity:1" fill="#a3dbfd" d="M 78.5,102.5 C 84.2611,102.709 84.5945,103.542 79.5,105C 78.1667,106.333 78.1667,107.667 79.5,109C 80.938,109.219 82.2713,109.719 83.5,110.5C 76.4089,111.531 74.7423,108.864 78.5,102.5 Z"/></g>
<g><path style="opacity:1" fill="#57bafc" d="M 183.5,107.5 C 184.485,111.634 184.818,115.968 184.5,120.5C 185.833,120.5 187.167,120.5 188.5,120.5C 187.081,121.451 185.415,121.784 183.5,121.5C 183.5,116.833 183.5,112.167 183.5,107.5 Z"/></g>
<g><path style="opacity:1" fill="#a2dafd" d="M 83.5,113.5 C 86.8984,113.18 90.2317,113.513 93.5,114.5C 92.3112,115.429 90.9778,115.762 89.5,115.5C 88.8333,127.5 88.1667,127.5 87.5,115.5C 85.5168,115.843 84.1834,115.176 83.5,113.5 Z"/></g>
<g><path style="opacity:1" fill="#4bb7fc" d="M 173.5,108.5 C 173.5,112.5 173.5,116.5 173.5,120.5C 174.833,120.5 176.167,120.5 177.5,120.5C 176.081,121.451 174.415,121.784 172.5,121.5C 172.182,116.968 172.515,112.634 173.5,108.5 Z"/></g>
<g><path style="opacity:1" fill="#a6dcfd" d="M 102.5,117.5 C 102.631,118.376 102.298,119.043 101.5,119.5C 100.468,117.96 99.1346,117.46 97.5,118C 96.1991,119.616 96.1991,121.116 97.5,122.5C 98.6085,123.29 99.9419,123.79 101.5,124C 95.3333,125.833 93.1667,123.667 95,117.5C 97.6047,116.186 100.105,116.186 102.5,117.5 Z"/></g>
<g><path style="opacity:1" fill="#6ec5fc" d="M 162.5,119.5 C 161.848,120.725 160.681,121.392 159,121.5C 157.615,121.486 156.449,121.152 155.5,120.5C 157.95,120.702 160.283,120.369 162.5,119.5 Z"/></g>
<g><path style="opacity:1" fill="#7fc9fd" d="M 102.5,111.5 C 105.833,111.5 109.167,111.5 112.5,111.5C 111.081,112.451 109.415,112.784 107.5,112.5C 107.337,114.857 107.503,117.19 108,119.5C 110.195,115.128 113.195,114.461 117,117.5C 117.483,118.448 117.649,119.448 117.5,120.5C 110.338,120.613 110.005,121.613 116.5,123.5C 112.941,126.486 110.108,125.82 108,121.5C 107.888,124.447 106.388,125.78 103.5,125.5C 103.5,123.833 103.5,122.167 103.5,120.5C 100.918,120.025 98.9179,120.692 97.5,122.5C 96.1991,121.116 96.1991,119.616 97.5,118C 99.1346,117.46 100.468,117.96 101.5,119.5C 102.298,119.043 102.631,118.376 102.5,117.5C 105.015,115.682 105.015,113.682 102.5,111.5 Z"/></g>
</svg>
